<svg width="55" height="40" viewBox="0 0 55 40" fill="none" xmlns="http://www.w3.org/2000/svg">
<path d="M55 20C55 20.8375 54.6523 21.6407 54.0334 22.233C53.4146 22.8252 52.5752 23.1579 51.7 23.1579H3.3C2.42479 23.1579 1.58542 22.8252 0.966548 22.233C0.347678 21.6407 0 20.8375 0 20C0 19.1625 0.347678 18.3593 0.966548 17.767C1.58542 17.1748 2.42479 16.8421 3.3 16.8421H51.7C52.5752 16.8421 53.4146 17.1748 54.0334 17.767C54.6523 18.3593 55 19.1625 55 20ZM3.3 6.31579H51.7C52.5752 6.31579 53.4146 5.98308 54.0334 5.39086C54.6523 4.79864 55 3.99542 55 3.15789C55 2.32037 54.6523 1.51715 54.0334 0.924926C53.4146 0.332705 52.5752 0 51.7 0H3.3C2.42479 0 1.58542 0.332705 0.966548 0.924926C0.347678 1.51715 0 2.32037 0 3.15789C0 3.99542 0.347678 4.79864 0.966548 5.39086C1.58542 5.98308 2.42479 6.31579 3.3 6.31579ZM51.7 33.6842H3.3C2.42479 33.6842 1.58542 34.0169 0.966548 34.6091C0.347678 35.2014 0 36.0046 0 36.8421C0 37.6796 0.347678 38.4829 0.966548 39.0751C1.58542 39.6673 2.42479 40 3.3 40H51.7C52.5752 40 53.4146 39.6673 54.0334 39.0751C54.6523 38.4829 55 37.6796 55 36.8421C55 36.0046 54.6523 35.2014 54.0334 34.6091C53.4146 34.0169 52.5752 33.6842 51.7 33.6842Z" fill="white"/>
</svg>
