<svg width="161" height="49" viewBox="0 0 161 49" fill="none" xmlns="http://www.w3.org/2000/svg">
<path d="M1.87193 48.72C1.29593 48.72 0.831932 48.544 0.479932 48.192C0.159932 47.872 -6.81877e-05 47.424 -6.81877e-05 46.848V24.192C0.0319319 21.696 0.623932 19.456 1.77593 17.472C2.95993 15.456 4.54393 13.872 6.52793 12.72C8.54393 11.568 10.7999 10.992 13.2959 10.992C15.8559 10.992 18.1439 11.584 20.1599 12.768C22.1759 13.92 23.7599 15.504 24.9119 17.52C26.0959 19.536 26.6879 21.824 26.6879 24.384C26.6879 26.912 26.1119 29.184 24.9599 31.2C23.8399 33.216 22.3039 34.816 20.3519 36C18.3999 37.152 16.1919 37.728 13.7279 37.728C11.5839 37.728 9.63193 37.28 7.87193 36.384C6.14393 35.456 4.75193 34.24 3.69593 32.736V46.848C3.69593 47.424 3.51993 47.872 3.16793 48.192C2.84793 48.544 2.41593 48.72 1.87193 48.72ZM13.2959 34.368C15.1519 34.368 16.8159 33.936 18.2879 33.072C19.7599 32.208 20.9119 31.024 21.7439 29.52C22.6079 27.984 23.0399 26.272 23.0399 24.384C23.0399 22.464 22.6079 20.752 21.7439 19.248C20.9119 17.744 19.7599 16.56 18.2879 15.696C16.8159 14.8 15.1519 14.352 13.2959 14.352C11.4719 14.352 9.82393 14.8 8.35193 15.696C6.87993 16.56 5.72793 17.744 4.89593 19.248C4.06393 20.752 3.64793 22.464 3.64793 24.384C3.64793 26.272 4.06393 27.984 4.89593 29.52C5.72793 31.024 6.87993 32.208 8.35193 33.072C9.82393 33.936 11.4719 34.368 13.2959 34.368ZM35.8094 26.784C35.2334 26.784 34.7694 26.608 34.4174 26.256C34.0974 25.904 33.9374 25.456 33.9374 24.912V1.872C33.9374 1.296 34.0974 0.848004 34.4174 0.528005C34.7694 0.176005 35.2334 5.72205e-06 35.8094 5.72205e-06C36.3534 5.72205e-06 36.7854 0.176005 37.1054 0.528005C37.4574 0.848004 37.6334 1.296 37.6334 1.872V24.912C37.6334 25.456 37.4574 25.904 37.1054 26.256C36.7854 26.608 36.3534 26.784 35.8094 26.784ZM56.4494 37.488C55.9054 37.488 55.4574 37.312 55.1054 36.96C54.7534 36.608 54.5774 36.176 54.5774 35.664V23.184C54.5774 21.2 54.1934 19.568 53.4254 18.288C52.6894 17.008 51.6654 16.048 50.3534 15.408C49.0734 14.768 47.6174 14.448 45.9854 14.448C44.4174 14.448 42.9934 14.752 41.7134 15.36C40.4654 15.968 39.4734 16.8 38.7374 17.856C38.0014 18.912 37.6334 20.112 37.6334 21.456H34.9934C35.0574 19.44 35.6014 17.648 36.6254 16.08C37.6494 14.48 39.0094 13.232 40.7054 12.336C42.4014 11.408 44.2894 10.944 46.3694 10.944C48.6414 10.944 50.6734 11.424 52.4654 12.384C54.2574 13.312 55.6654 14.688 56.6894 16.512C57.7454 18.336 58.2734 20.56 58.2734 23.184V35.664C58.2734 36.176 58.0974 36.608 57.7454 36.96C57.3934 37.312 56.9614 37.488 56.4494 37.488ZM35.8094 37.488C35.2334 37.488 34.7694 37.328 34.4174 37.008C34.0974 36.656 33.9374 36.208 33.9374 35.664V13.104C33.9374 12.528 34.0974 12.08 34.4174 11.76C34.7694 11.408 35.2334 11.232 35.8094 11.232C36.3534 11.232 36.7854 11.408 37.1054 11.76C37.4574 12.08 37.6334 12.528 37.6334 13.104V35.664C37.6334 36.208 37.4574 36.656 37.1054 37.008C36.7854 37.328 36.3534 37.488 35.8094 37.488ZM78.3738 37.728C75.8138 37.728 73.5258 37.152 71.5098 36C69.4938 34.848 67.9098 33.264 66.7578 31.248C65.6058 29.232 65.0298 26.944 65.0298 24.384C65.0298 21.792 65.6058 19.488 66.7578 17.472C67.9098 15.456 69.4938 13.872 71.5098 12.72C73.5258 11.568 75.8138 10.992 78.3738 10.992C80.9338 10.992 83.2058 11.568 85.1898 12.72C87.2058 13.872 88.7898 15.456 89.9418 17.472C91.0938 19.488 91.6858 21.792 91.7178 24.384C91.7178 26.944 91.1258 29.232 89.9418 31.248C88.7898 33.264 87.2058 34.848 85.1898 36C83.2058 37.152 80.9338 37.728 78.3738 37.728ZM78.3738 34.368C80.2298 34.368 81.8938 33.936 83.3658 33.072C84.8378 32.208 85.9898 31.024 86.8218 29.52C87.6538 28.016 88.0698 26.304 88.0698 24.384C88.0698 22.464 87.6538 20.752 86.8218 19.248C85.9898 17.712 84.8378 16.512 83.3658 15.648C81.8938 14.784 80.2298 14.352 78.3738 14.352C76.5178 14.352 74.8538 14.784 73.3818 15.648C71.9098 16.512 70.7418 17.712 69.8778 19.248C69.0458 20.752 68.6298 22.464 68.6298 24.384C68.6298 26.304 69.0458 28.016 69.8778 29.52C70.7418 31.024 71.9098 32.208 73.3818 33.072C74.8538 33.936 76.5178 34.368 78.3738 34.368ZM100.442 21.312C100.538 19.328 101.05 17.552 101.978 15.984C102.938 14.416 104.17 13.184 105.674 12.288C107.21 11.392 108.906 10.944 110.762 10.944C112.234 10.944 113.37 11.152 114.17 11.568C114.97 11.984 115.274 12.592 115.082 13.392C114.954 13.872 114.73 14.192 114.41 14.352C114.122 14.512 113.754 14.576 113.306 14.544C112.89 14.512 112.41 14.48 111.866 14.448C110.074 14.288 108.474 14.48 107.066 15.024C105.69 15.536 104.586 16.336 103.754 17.424C102.954 18.512 102.554 19.808 102.554 21.312H100.442ZM100.73 37.488C100.154 37.488 99.7062 37.328 99.3862 37.008C99.0662 36.688 98.9062 36.24 98.9062 35.664V13.056C98.9062 12.48 99.0662 12.032 99.3862 11.712C99.7062 11.392 100.154 11.232 100.73 11.232C101.306 11.232 101.754 11.392 102.074 11.712C102.394 12.032 102.554 12.48 102.554 13.056V35.664C102.554 36.24 102.394 36.688 102.074 37.008C101.754 37.328 101.306 37.488 100.73 37.488ZM123.531 37.488C122.955 37.488 122.491 37.328 122.139 37.008C121.819 36.656 121.659 36.192 121.659 35.616V13.104C121.659 12.528 121.819 12.08 122.139 11.76C122.491 11.408 122.955 11.232 123.531 11.232C124.075 11.232 124.507 11.408 124.827 11.76C125.179 12.08 125.355 12.528 125.355 13.104V35.616C125.355 36.192 125.179 36.656 124.827 37.008C124.507 37.328 124.075 37.488 123.531 37.488ZM123.483 6.24001C122.779 6.24001 122.171 5.984 121.659 5.472C121.147 4.96 120.891 4.33601 120.891 3.60001C120.891 2.80001 121.147 2.17601 121.659 1.728C122.203 1.248 122.827 1.008 123.531 1.008C124.203 1.008 124.795 1.248 125.307 1.728C125.851 2.17601 126.123 2.80001 126.123 3.60001C126.123 4.33601 125.867 4.96 125.355 5.472C124.843 5.984 124.219 6.24001 123.483 6.24001ZM146.334 37.728C143.87 37.728 141.662 37.152 139.71 36C137.758 34.816 136.206 33.216 135.054 31.2C133.934 29.184 133.374 26.912 133.374 24.384C133.374 21.824 133.95 19.536 135.102 17.52C136.286 15.504 137.886 13.92 139.902 12.768C141.918 11.584 144.19 10.992 146.718 10.992C149.246 10.992 151.502 11.584 153.486 12.768C155.502 13.92 157.086 15.504 158.238 17.52C159.422 19.536 160.03 21.824 160.062 24.384L158.574 25.536C158.574 27.84 158.03 29.92 156.942 31.776C155.886 33.6 154.43 35.056 152.574 36.144C150.75 37.2 148.67 37.728 146.334 37.728ZM146.718 34.368C148.574 34.368 150.222 33.936 151.662 33.072C153.134 32.208 154.286 31.024 155.118 29.52C155.982 27.984 156.414 26.272 156.414 24.384C156.414 22.464 155.982 20.752 155.118 19.248C154.286 17.744 153.134 16.56 151.662 15.696C150.222 14.8 148.574 14.352 146.718 14.352C144.894 14.352 143.246 14.8 141.774 15.696C140.302 16.56 139.134 17.744 138.27 19.248C137.406 20.752 136.974 22.464 136.974 24.384C136.974 26.272 137.406 27.984 138.27 29.52C139.134 31.024 140.302 32.208 141.774 33.072C143.246 33.936 144.894 34.368 146.718 34.368ZM158.19 37.488C157.646 37.488 157.198 37.328 156.846 37.008C156.494 36.656 156.318 36.208 156.318 35.664V27.456L157.23 23.664L160.062 24.384V35.664C160.062 36.208 159.886 36.656 159.534 37.008C159.182 37.328 158.734 37.488 158.19 37.488Z" fill="white"/>
</svg>
